PathFileType	4	(X/Y/Z)	c:/Users/goper/Files/vsCode/490R/osim_files/C08/C08_Slow_06.trc
DataRate	CameraRate	NumFrames	NumMarkers	Units                	OrigDataRate	OrigDataStartFrame	OrigNumFrames
250.00	250.00	6	36	mm	250.0	1314	2626
                Frame#	Time	LPSIS			LASIS			LTH1			LTH2			LTH3			LTH4			LLFE			LMFE			LSH1			LSH2			LSH3			LSH4			LLMAL			LMMAL			LCAL			LMTP5			LTOE			LMTP1			RPSIS			RASIS			RTH1			RTH2			RTH3			RTH4			RLFE			RMFE			RSH1			RSH2			RSH3			RSH4			RLMAL			RMMAL			RCAL			RMTP1			RTOE			RMTP5		
		X1	Y1	Z1	X2	Y2	Z2	X3	Y3	Z3	X4	Y4	Z4	X5	Y5	Z5	X6	Y6	Z6	X7	Y7	Z7	X8	Y8	Z8	X9	Y9	Z9	X10	Y10	Z10	X11	Y11	Z11	X12	Y12	Z12	X13	Y13	Z13	X14	Y14	Z14	X15	Y15	Z15	X16	Y16	Z16	X17	Y17	Z17	X18	Y18	Z18	X19	Y19	Z19	X20	Y20	Z20	X21	Y21	Z21	X22	Y22	Z22	X23	Y23	Z23	X24	Y24	Z24	X25	Y25	Z25	X26	Y26	Z26	X27	Y27	Z27	X28	Y28	Z28	X29	Y29	Z29	X30	Y30	Z30	X31	Y31	Z31	X32	Y32	Z32	X33	Y33	Z33	X34	Y34	Z34	X35	Y35	Z35	X36	Y36	Z36

1314	5.25200	184.79376	1033.01685	202.43637	-13.63367	988.80182	301.68509	123.56109	718.84314	365.86554	134.90833	641.82867	349.42792	146.46387	569.66827	343.99118	55.67662	637.53461	339.65405	158.53188	522.79816	336.81259	138.33876	505.24008	212.06371	270.81680	447.97787	339.56662	294.33670	406.47195	339.51859	219.39726	413.78500	346.11105	249.47986	378.07492	343.74170	445.10883	175.43228	284.15359	417.28223	173.44714	199.65273	507.85141	197.58812	227.79820	393.41016	52.74604	305.96118	333.88446	54.93473	243.78569	366.35690	51.61781	192.38878	181.13718	1030.26172	142.20868	-23.48858	1000.07916	66.44054	-21.71312	741.34137	6.21032	-45.77457	668.15723	26.66845	-68.05487	594.12024	27.47788	-111.27152	695.18854	59.53307	-87.30704	526.06555	55.11259	-77.79152	517.65088	176.68248	-47.45657	434.24527	32.85752	-59.39240	391.26535	29.72109	-107.21803	442.69461	48.60280	-110.55405	399.63184	41.69403	-82.70728	96.93016	91.45733	-112.41760	101.41047	180.32043	-28.08328	72.93703	163.52069	-243.56476	47.05325	168.66183	-260.10751	69.20592	116.15669	-209.73682	46.84583	56.76785
1315	5.25600	180.01805	1033.29395	202.12737	-18.32356	989.27094	301.10425	116.73917	718.36273	365.60419	127.21835	641.11615	349.64343	138.09528	568.82013	344.61847	47.98686	637.53162	340.15247	149.76767	521.93823	337.70630	128.29486	503.68936	213.03711	262.24283	448.59750	340.21323	286.22919	407.24429	340.24377	211.33199	413.76813	346.98816	241.74866	378.38010	344.54568	439.99527	178.77222	284.66104	412.20566	176.23111	200.06715	501.91852	202.93718	228.23628	391.91180	54.41644	306.01996	332.56339	55.02860	243.99403	364.74380	52.92000	192.68423	176.33337	1030.76514	141.85570	-28.43971	1001.05927	66.12673	-27.08788	742.06134	5.67061	-50.99487	668.93835	26.12222	-74.85513	594.68512	27.27172	-116.24569	695.82281	59.59108	-91.16723	526.22113	54.69603	-81.53471	517.94330	176.42657	-50.95769	434.66324	32.54707	-62.60289	391.59433	29.39647	-110.61095	442.80737	48.12766	-113.75800	399.64322	41.49369	-83.14700	96.98271	91.42056	-112.91011	101.46489	180.31882	-28.24024	73.16331	163.44566	-243.85223	46.66348	168.55815	-260.56506	68.54073	116.00706	-209.92586	46.57449	56.59420
1316	5.26000	175.24272	1033.52515	201.82184	-22.99340	989.74640	300.42908	109.80557	717.86865	365.40402	119.55495	640.42310	349.95126	129.60226	567.93701	345.31500	40.21117	637.54132	340.73325	140.91277	521.05725	338.78836	118.55215	502.29236	214.02411	253.50923	449.13113	340.87387	277.99478	408.01358	341.00156	202.94884	413.71771	347.87369	233.92296	378.67621	345.37665	434.67218	182.18059	285.20251	406.92282	179.10684	200.50240	495.76727	208.40163	228.67336	390.28458	56.37187	306.08762	330.69525	55.25842	244.18451	363.15396	54.52105	192.81863	171.53290	1031.20642	141.52936	-33.26437	1002.05804	65.70097	-32.24298	742.69666	5.01586	-55.86724	669.44574	25.64146	-79.90605	595.31396	26.65114	-120.89382	696.16193	59.48262	-94.83064	526.31006	54.27573	-85.30531	518.06036	176.05511	-54.28191	434.96561	32.22949	-65.71804	391.82822	29.09929	-114.26135	442.59033	48.03706	-116.90081	399.55988	41.25928	-83.58255	97.08449	91.45056	-113.40221	101.49961	180.32256	-28.40604	73.33305	163.38396	-244.09274	46.26553	168.55724	-260.99249	67.87397	115.99763	-210.09491	46.34821	56.49875
1317	5.26400	170.47073	1033.78284	201.51591	-27.76411	990.20856	299.81595	102.89548	717.37067	365.25003	111.77972	639.74084	350.34500	121.07988	567.07196	346.02240	32.32943	637.55615	341.27512	131.89098	520.18207	339.67178	108.54817	500.85553	215.01823	244.64856	449.68762	341.07138	269.67685	408.81769	341.65735	195.15268	413.26392	349.54453	226.09041	378.96307	346.18472	429.21765	185.68832	285.76233	401.48444	182.07625	200.90878	489.32300	213.91443	229.19394	388.54633	58.53450	306.14407	328.95465	55.46723	244.42699	361.15491	56.24031	193.21756	166.72153	1031.64050	141.19719	-38.13472	1003.03845	65.28785	-37.10276	743.09802	4.41373	-60.14449	669.69855	25.10698	-83.95467	595.51080	26.26245	-125.26350	696.22052	59.21610	-98.43371	526.37158	53.86770	-88.87693	518.17059	175.63657	-57.59508	435.09369	31.93527	-68.64068	391.93533	28.96791	-117.26900	442.58307	47.67674	-120.66515	398.30188	42.45754	-83.92905	97.23467	91.46909	-113.82355	101.48925	180.34811	-28.53492	73.51546	163.32617	-244.33226	45.87926	168.61765	-261.36423	67.21927	116.06113	-210.27979	46.17904	56.46416
1318	5.26800	165.74548	1033.97095	201.19221	-32.35872	990.57648	299.21451	95.87257	716.84241	365.15335	103.92559	639.01129	350.70963	112.48578	566.23853	346.81006	24.47789	637.55090	341.85037	122.85400	519.22351	340.66351	98.50917	499.51218	215.99602	235.67737	450.26877	341.90384	261.26889	409.55621	342.42404	186.96730	413.37445	350.46906	217.78145	379.29617	346.88550	423.56747	189.30780	286.34244	395.95871	185.17036	201.29805	482.64575	219.53949	229.70502	386.66504	60.91636	306.24930	326.80161	55.87284	244.79985	359.04813	58.25084	193.61812	161.92880	1032.01599	140.86848	-42.48562	1004.14221	64.71941	-41.65449	743.41681	3.85453	-64.21088	669.84143	24.63403	-87.08830	595.21869	26.09616	-129.36566	696.01025	58.93273	-101.94512	526.25610	53.50500	-92.36892	518.21954	175.11118	-60.64333	435.32730	31.73136	-71.48563	392.01099	28.70289	-120.73605	442.20062	47.55915	-123.50505	398.03247	42.24628	-84.26868	97.32580	91.52635	-114.17083	101.47886	180.41022	-28.64305	73.67223	163.29166	-244.55008	45.54411	168.67717	-261.65274	66.66299	116.11673	-210.42960	46.05568	56.42082
1319	5.27200	161.02258	1034.18640	200.84932	-36.94956	991.02386	298.53348	88.86908	716.29205	365.05310	96.09602	638.29749	351.07962	103.84669	565.38428	347.54816	16.58006	637.59021	342.43436	113.79087	518.30414	341.52429	88.34989	498.13696	216.88145	226.62358	450.88251	342.73080	252.65479	410.41431	343.12222	178.00972	413.09818	351.21381	209.26553	379.17780	346.64917	418.13293	193.31700	286.48831	390.22070	188.38100	201.64006	475.75531	225.20424	230.24338	384.58990	63.53261	306.34467	322.31598	57.38350	246.28345	356.66431	60.41245	194.04123	157.16774	1032.37195	140.51015	-47.68231	1004.93054	64.33872	-45.95889	743.44891	3.37927	-68.04541	669.84027	24.25667	-88.71098	595.07550	25.46856	-133.27084	695.65820	58.51961	-105.40897	526.10284	53.20874	-95.39288	518.25043	174.70370	-63.41541	435.53027	31.56413	-74.18382	391.96698	28.50873	-123.75153	441.85687	47.31552	-126.26279	397.68961	42.07812	-84.51358	97.50070	91.53773	-114.43751	101.45158	180.46672	-28.72442	73.80029	163.27296	-244.71548	45.28091	168.70200	-261.88712	66.24849	116.12667	-210.55310	45.93044	56.36837
